# xmcd
#
# Track frame offsets: 
#        150
#        21798
#        40882
#        68033
#        86114
#        116991
#        139474
#        155319
#        175114
#        238418
#        266823
#
# Disc length: 3763 seconds
#
# Revision: 0
# Processed by: cddbd v1.5.2PL0 Copyright (c) Steve Scherf et al.
# Submitted via: ExactAudioCopy v1.3
#
DISCID=a00eb10b
DTITLE=Seth Yacovone Band - Dannemora
DYEAR=2000
DGENRE=Blues Rock
TTITLE0=Dannemora
TTITLE1=Long Gone
TTITLE2=Restraints
TTITLE3=Old Noose Route
TTITLE4=Mold I
TTITLE5=Take It From Me
TTITLE6=Purfukt Roll Mottle
TTITLE7=Keep On Trying
TTITLE8=Mold II
TTITLE9=Rise
TTITLE10=Back In The Store
EXTD=
EXTT0=
EXTT1=
EXTT2=
EXTT3=
EXTT4=
EXTT5=
EXTT6=
EXTT7=
EXTT8=
EXTT9=
EXTT10=
PLAYORDER=
